<?xml version="1.0" encoding="UTF-8"?>
<svg version="1.1" xmlns="http://www.w3.org/2000/svg" width="243" height="242">
<path d="M0 0 C4.73169582 1.99782713 6.5134265 5.47342393 8.6953125 9.90625 C9.04513184 10.61338135 9.39495117 11.3205127 9.75537109 12.04907227 C10.10422363 12.75475342 10.45307617 13.46043457 10.8125 14.1875 C11.43099795 15.41601676 12.05074465 16.64390581 12.671875 17.87109375 C16.1156736 24.7016864 19.47233525 31.55868316 22.6875 38.5 C25.94109198 45.50313865 29.46618719 52.33581126 33.09008789 59.15356445 C39.02688757 70.32730184 44.70872992 81.6058679 49.8125 93.1875 C46.8125 95.1875 46.8125 95.1875 44.625 94.8125 C44.026875 94.60625 43.42875 94.4 42.8125 94.1875 C42.8125 93.5275 42.8125 92.8675 42.8125 92.1875 C41.760625 92.373125 40.70875 92.55875 39.625 92.75 C36.24130118 93.13829331 34.04824112 93.06997485 30.8125 92.1875 C30.8125 92.8475 30.8125 93.5075 30.8125 94.1875 C30.090625 94.14625 29.36875 94.105 28.625 94.0625 C25.56583202 94.19846302 23.61238743 94.99754784 20.8125 96.1875 C20.08289063 96.30222656 19.35328125 96.41695313 18.6015625 96.53515625 C15.00649123 97.37602026 11.93401462 98.98564286 8.6875 100.6875 C2.1325188 104.08082707 2.1325188 104.08082707 -1.1875 105.1875 C-2.5440164 106.49723998 -3.87307638 107.83552142 -5.1875 109.1875 C-6.22290524 110.0286004 -7.26489183 110.86164831 -8.3125 111.6875 C-11.00601181 114.02968418 -11.78124295 115.09373449 -13.1875 118.1875 C-14.41204634 119.66984557 -15.63815947 121.15110416 -16.88671875 122.61328125 C-20.10122808 126.50351326 -22.4769462 130.45058179 -24.1875 135.1875 C-24.5175 135.8475 -24.8475 136.5075 -25.1875 137.1875 C-25.8475 137.1875 -26.5075 137.1875 -27.1875 137.1875 C-26.98125 137.785625 -26.775 138.38375 -26.5625 139 C-26.1875 141.1875 -26.1875 141.1875 -28.1875 144.1875 C-29.56514704 147.95880877 -29.26327728 151.85692604 -29.1875 155.8125 C-29.05291971 162.91833942 -29.05291971 162.91833942 -30.1875 165.1875 C-29.5275 165.1875 -28.8675 165.1875 -28.1875 165.1875 C-27.95675781 165.79078125 -27.72601563 166.3940625 -27.48828125 167.015625 C-24.97896351 173.1649412 -22.73256706 176.65667559 -16.4375 179.375 C-15.695 179.643125 -14.9525 179.91125 -14.1875 180.1875 C-13.8575 180.5175 -13.5275 180.8475 -13.1875 181.1875 C-11.8675 181.1875 -10.5475 181.1875 -9.1875 181.1875 C-9.1875 181.8475 -9.1875 182.5075 -9.1875 183.1875 C-6.8775 183.1875 -4.5675 183.1875 -2.1875 183.1875 C-2.1875 182.5275 -2.1875 181.8675 -2.1875 181.1875 C-1.506875 181.22875 -0.82625 181.27 -0.125 181.3125 C6.12678358 181.04646666 11.43703929 178.56067498 16.9375 175.75 C17.53175781 175.45029297 18.12601562 175.15058594 18.73828125 174.84179688 C25.55388126 171.3970393 25.55388126 171.3970393 31.375 166.5625 C33.81444421 164.18560564 34.63841016 163.79144944 37.8125 163.1875 C40.08928571 171.22321429 40.08928571 171.22321429 38.8125 175.1875 C38.1525 175.1875 37.4925 175.1875 36.8125 175.1875 C36.77125 176.156875 36.73 177.12625 36.6875 178.125 C35.59746339 186.09690957 29.28003367 191.98131847 23.375 196.8359375 C21.62595969 198.30405446 21.62595969 198.30405446 19.5 200.625 C14.58679577 205.3096831 9.15681423 208.78751271 2.8125 211.1875 C1.575 211.7753125 1.575 211.7753125 0.3125 212.375 C-2.60608334 213.32353959 -4.27300418 213.02021309 -7.1875 212.1875 C-7.1875 212.8475 -7.1875 213.5075 -7.1875 214.1875 C-8.8375 213.8575 -10.4875 213.5275 -12.1875 213.1875 C-12.1875 213.8475 -12.1875 214.5075 -12.1875 215.1875 C-13.321875 215.166875 -14.45625 215.14625 -15.625 215.125 C-19.00325674 214.77172523 -19.00325674 214.77172523 -20.1875 216.1875 C-22.71291002 216.28254251 -25.21087126 216.31307158 -27.73657227 216.30102539 C-28.92185013 216.30124443 -28.92185013 216.30124443 -30.131073 216.3014679 C-32.75537822 216.30076857 -35.37961336 216.29297527 -38.00390625 216.28515625 C-39.81851665 216.28329214 -41.63312756 216.2818682 -43.44773865 216.28086853 C-48.2334023 216.27704279 -53.0190358 216.26721204 -57.8046875 216.25616455 C-62.68424064 216.24595163 -67.56379864 216.24137117 -72.44335938 216.23632812 C-82.02475286 216.22558982 -91.60612393 216.20851273 -101.1875 216.1875 C-101.1875 215.5275 -101.1875 214.8675 -101.1875 214.1875 C-102.1775 214.5175 -103.1675 214.8475 -104.1875 215.1875 C-107.4417015 212.35319547 -108.7081753 210.50142226 -109.1875 206.1875 C-108.5275 206.1875 -107.8675 206.1875 -107.1875 206.1875 C-107.5175 205.1975 -107.8475 204.2075 -108.1875 203.1875 C-106.9420352 200.48999089 -105.63777453 197.95921879 -104.1875 195.375 C-103.35155065 193.84316422 -102.51693447 192.31060022 -101.68359375 190.77734375 C-101.26319824 190.00890137 -100.84280273 189.24045898 -100.40966797 188.44873047 C-98.62361589 185.14421302 -96.92591772 181.79891994 -95.25 178.4375 C-94.70472656 177.34953125 -94.15945312 176.2615625 -93.59765625 175.140625 C-92.34473401 172.51677677 -91.26107562 169.88770535 -90.1875 167.1875 C-89.01726917 164.59447053 -87.83345967 162.01255762 -86.625 159.4375 C-86.27566406 158.69306641 -85.92632812 157.94863281 -85.56640625 157.18164062 C-82.73846202 151.21989296 -79.68813155 145.39906716 -76.55786133 139.59179688 C-73.43588808 133.75996977 -70.58897297 127.82153208 -67.83789062 121.80664062 C-66.14210303 118.11749594 -64.29750457 114.66316351 -62.1875 111.1875 C-61.49649447 109.19577818 -60.82847297 107.19588196 -60.1875 105.1875 C-59.20463326 103.02519317 -58.11284107 101.06830767 -56.8515625 99.0546875 C-54.83876581 95.58662936 -53.17591455 92.01465011 -51.5 88.375 C-46.17360649 76.94562703 -40.54893126 65.69371745 -34.625 54.5625 C-31.78772517 49.23103147 -28.97418655 43.89030357 -26.25 38.5 C-25.70472656 37.42363281 -25.15945312 36.34726562 -24.59765625 35.23828125 C-23.14204376 32.24570567 -23.14204376 32.24570567 -22.21484375 29.20703125 C-21.03946453 25.75239954 -19.45181495 22.75471392 -17.6875 19.5625 C-14.85222006 14.4195165 -14.85222006 14.4195165 -12.1875 9.1875 C-11.5275 9.1875 -10.8675 9.1875 -10.1875 9.1875 C-10.1875 8.1975 -10.1875 7.2075 -10.1875 6.1875 C-7.34310922 2.65304992 -4.5818037 0.26951786 0 0 Z " fill="#08CAC2" transform="translate(117.1875,12.8125)"/>
<path d="M0 0 C6.6029316 6.03501702 10.5194455 13.13174388 14.3125 21.125 C14.86736084 22.26372559 15.42222168 23.40245117 15.99389648 24.57568359 C17.67849869 28.04306221 19.34208972 31.51979173 21 35 C21.95295749 36.98966357 22.9060735 38.97925123 23.859375 40.96875 C25.20882233 43.78946472 26.5559456 46.61119079 27.89672852 49.43603516 C31.25702371 56.50396816 34.73304357 63.50886317 38.25 70.5 C51 95.87341873 51 95.87341873 51 99 C46.50005528 99.05845252 42.00020937 99.09374855 37.5 99.125 C35.59734375 99.15013672 35.59734375 99.15013672 33.65625 99.17578125 C24.43025958 99.22383328 15.55667622 99.03451977 8 93 C1.7384197 86.33418392 -2.11868302 78.37517379 -6.078125 70.2265625 C-6.73571929 68.89435524 -7.39441464 67.56269098 -8.05413818 66.23153687 C-9.78128643 62.74140931 -11.49737112 59.24597762 -13.2098999 55.74865723 C-16.25726836 49.52659643 -19.31862626 43.3114961 -22.390625 37.1015625 C-22.71798141 36.43830208 -23.04533783 35.77504166 -23.38261414 35.09168243 C-27.88065291 25.99432728 -32.59676452 17.07485175 -37.89068604 8.40884399 C-41 3.28401023 -41 3.28401023 -41 0 C-39.60550891 -0.483059 -38.20933293 -0.96125517 -36.8125 -1.4375 C-36.03519531 -1.70433594 -35.25789062 -1.97117187 -34.45703125 -2.24609375 C-23.83334644 -5.50582534 -9.63392707 -6.15081339 0 0 Z " fill="#FBF9F4" transform="translate(174,129)"/>
<path d="M0 0 C0.66 0.33 1.32 0.66 2 1 C0.36041242 6.23272633 -1.38952035 11.15196636 -4 16 C-4.99 16 -5.98 16 -7 16 C-5.56835889 12.34061828 -4.01065704 8.76011932 -2.375 5.1875 C-1.92898437 4.21167969 -1.48296875 3.23585937 -1.0234375 2.23046875 C-0.51683594 1.12638672 -0.51683594 1.12638672 0 0 Z " fill="#127574" transform="translate(32,169)"/>
<path d="M0 0 C-0.33 0.66 -0.66 1.32 -1 2 C-1.99 2.185625 -1.99 2.185625 -3 2.375 C-7.28610702 3.26793896 -11.04957649 5.14958376 -15 7 C-14.80078125 5.14453125 -14.80078125 5.14453125 -14 3 C-11.85546875 1.69921875 -11.85546875 1.69921875 -9.1875 0.6875 C-8.31480469 0.34074219 -7.44210938 -0.00601563 -6.54296875 -0.36328125 C-3.87565557 -1.03113386 -2.55113218 -0.92173773 0 0 Z " fill="#109996" transform="translate(139,107)"/>
<path d="M0 0 C0.66 0 1.32 0 2 0 C2.33 0.99 2.66 1.98 3 3 C0.89829344 3.53067341 -1.20647598 4.04922857 -3.3125 4.5625 C-4.48425781 4.85253906 -5.65601562 5.14257812 -6.86328125 5.44140625 C-10 6 -10 6 -13 5 C-13 4.34 -13 3.68 -13 3 C-11.9790625 3.061875 -11.9790625 3.061875 -10.9375 3.125 C-7.40439494 2.9746551 -2.61446152 2.61446152 0 0 Z " fill="#108785" transform="translate(128,191)"/>
<path d="M0 0 C1.1796875 1.609375 1.1796875 1.609375 2 4 C0.8828125 7.015625 0.8828125 7.015625 -0.875 10.25 C-1.44992188 11.32765625 -2.02484375 12.4053125 -2.6171875 13.515625 C-3.30167969 14.74539062 -3.30167969 14.74539062 -4 16 C-4.99 15.67 -5.98 15.34 -7 15 C-6.66226563 14.33613281 -6.32453125 13.67226562 -5.9765625 12.98828125 C-5.53054687 12.10527344 -5.08453125 11.22226563 -4.625 10.3125 C-4.18414062 9.44238281 -3.74328125 8.57226562 -3.2890625 7.67578125 C-2.07335732 5.15227201 -1.00739042 2.61262468 0 0 Z " fill="#109894" transform="translate(60,112)"/>
<path d="M0 0 C0.66 0.33 1.32 0.66 2 1 C2 1.66 2 2.32 2 3 C-1.78187881 4.83691257 -3.94568308 5.15837626 -8 4 C-8 4.66 -8 5.32 -8 6 C-8.99 6 -9.98 6 -11 6 C-11 4.68 -11 3.36 -11 2 C-8.02148438 1.65820312 -8.02148438 1.65820312 -5.04296875 1.31640625 C-2.80603607 1.02829265 -2.80603607 1.02829265 0 0 Z " fill="#0F9892" transform="translate(118,221)"/>
<path d="M0 0 C0.66 0 1.32 0 2 0 C1.74379316 1.6065676 1.46944129 3.2102483 1.1875 4.8125 C0.96126953 6.15248047 0.96126953 6.15248047 0.73046875 7.51953125 C-0.0657049 10.22311559 -0.91690116 11.17933881 -3 13 C-3.33 13.66 -3.66 14.32 -4 15 C-4.99 14.67 -5.98 14.34 -7 14 C-4.69 9.38 -2.38 4.76 0 0 Z " fill="#0CA9A4" transform="translate(23,188)"/>
<path d="M0 0 C0.66 0 1.32 0 2 0 C2.74926071 3.66305234 3.2380014 6.42355152 2 10 C1.34 10 0.68 10 0 10 C-0.12375 11.134375 -0.2475 12.26875 -0.375 13.4375 C-0.58125 14.613125 -0.7875 15.78875 -1 17 C-1.66 17.33 -2.32 17.66 -3 18 C-2.01 12.06 -1.02 6.12 0 0 Z " fill="#0F908C" transform="translate(154,178)"/>
<path d="M0 0 C0.33 0.66 0.66 1.32 1 2 C3.02463255 2.65213292 3.02463255 2.65213292 5 3 C4.360625 3.28875 3.72125 3.5775 3.0625 3.875 C0.84793921 4.82823451 0.84793921 4.82823451 0 7 C-1.875 8.1875 -1.875 8.1875 -4 9 C-4.99 8.67 -5.98 8.34 -7 8 C-6.34 8 -5.68 8 -5 8 C-5 7.01 -5 6.02 -5 5 C-2.5 2.3125 -2.5 2.3125 0 0 Z " fill="#0BBFB8" transform="translate(112,14)"/>
<path d="M0 0 C5.875 1.875 5.875 1.875 7 3 C8.32 3 9.64 3 11 3 C11.33 3.99 11.66 4.98 12 6 C9.03 5.67 6.06 5.34 3 5 C2.67 4.01 2.34 3.02 2 2 C1.34 2 0.68 2 0 2 C0 1.34 0 0.68 0 0 Z " fill="#108A87" transform="translate(97,191)"/>
<path d="M0 0 C1 2 1 2 0.4765625 4.09375 C0.05503906 5.28484375 0.05503906 5.28484375 -0.375 6.5 C-0.65085937 7.2940625 -0.92671875 8.088125 -1.2109375 8.90625 C-2 11 -2 11 -3 13 C-3.99 12.67 -4.98 12.34 -6 12 C-4.02 8.04 -2.04 4.08 0 0 Z " fill="#15716F" transform="translate(99,34)"/>
<path d="M0 0 C0.33 0.99 0.66 1.98 1 3 C-2 5 -2 5 -4.1875 4.625 C-4.785625 4.41875 -5.38375 4.2125 -6 4 C-6 3.34 -6 2.68 -6 2 C-7.65 2 -9.3 2 -11 2 C-11 1.67 -11 1.34 -11 1 C-3.375 0 -3.375 0 0 0 Z " fill="#0E9995" transform="translate(166,103)"/>
<path d="M0 0 C-1.47559669 4.42679007 -3.90057368 4.91432696 -8 7 C-8.66 7 -9.32 7 -10 7 C-10 6.01 -10 5.02 -10 4 C-3.375 0 -3.375 0 0 0 Z " fill="#118E8B" transform="translate(133,215)"/>
<path d="M0 0 C0.33 1.32 0.66 2.64 1 4 C-6.28571429 7.42857143 -6.28571429 7.42857143 -11 7 C-8.99766723 4.99766723 -7.46399161 4.14342975 -4.9375 2.9375 C-2.27306757 1.74827237 -2.27306757 1.74827237 0 0 Z " fill="#137573" transform="translate(142,184)"/>
<path d="M0 0 C0.66 0.99 1.32 1.98 2 3 C1.0409375 4.1446875 1.0409375 4.1446875 0.0625 5.3125 C-2.14232781 7.88246713 -2.14232781 7.88246713 -3 11 C-3.66 11 -4.32 11 -5 11 C-4.46884894 6.48521602 -2.63379708 3.65333143 0 0 Z " fill="#0E9B97" transform="translate(97,135)"/>
<path d="M0 0 C1.125 1.75 1.125 1.75 2 4 C1.125 6.25 1.125 6.25 0 8 C-0.99 8 -1.98 8 -3 8 C-1.125 2.25 -1.125 2.25 0 0 Z " fill="#117B78" transform="translate(60,112)"/>
<path d="" fill="#200402" transform="translate(0,0)"/>
<path d="" fill="#230204" transform="translate(0,0)"/>
<path d="" fill="#250004" transform="translate(0,0)"/>
<path d="" fill="#260005" transform="translate(0,0)"/>
<path d="" fill="#200002" transform="translate(0,0)"/>
<path d="" fill="#210003" transform="translate(0,0)"/>
<path d="" fill="#25000B" transform="translate(0,0)"/>
<path d="" fill="#230004" transform="translate(0,0)"/>
<path d="" fill="#1E0303" transform="translate(0,0)"/>
<path d="" fill="#1F0000" transform="translate(0,0)"/>
<path d="" fill="#1D0001" transform="translate(0,0)"/>
</svg>
